<svg width="14" height="14" viewBox="0 0 14 14" fill="none" xmlns="http://www.w3.org/2000/svg">
<path d="M13.9642 5.34115C13.8743 5.05921 13.6276 4.85896 13.3357 4.8323L9.37089 4.46739L7.80309 0.747873C7.68749 0.47528 7.42422 0.298828 7.1317 0.298828C6.83919 0.298828 6.57591 0.47528 6.46031 0.74851L4.89251 4.46739L0.927056 4.8323C0.635694 4.8596 0.389609 5.05921 0.299161 5.34115C0.208713 5.62309 0.292244 5.93233 0.512652 6.12727L3.50959 8.79137L2.62586 12.7372C2.5612 13.0273 2.67229 13.3272 2.90978 13.5012C3.03744 13.5947 3.18679 13.6423 3.33739 13.6423C3.46725 13.6423 3.59606 13.6068 3.71166 13.5367L7.1317 11.4648L10.5505 13.5367C10.8007 13.6892 11.116 13.6753 11.353 13.5012C11.5906 13.3266 11.7016 13.0266 11.6369 12.7372L10.7532 8.79137L13.7501 6.1278C13.9705 5.93233 14.0547 5.62362 13.9642 5.34115Z" fill="#D5D5D5"/>
</svg>
