<svg width="17" height="21" viewBox="0 0 17 21" fill="none" xmlns="http://www.w3.org/2000/svg">
<path d="M8.5 0C4.30635 0 0.894592 3.41176 0.894592 7.60536C0.894592 12.8098 7.70068 20.4501 7.99046 20.7728C8.26264 21.076 8.73785 21.0754 9.00953 20.7728C9.29931 20.4501 16.1054 12.8098 16.1054 7.60536C16.1053 3.41176 12.6936 0 8.5 0ZM8.5 11.4318C6.39007 11.4318 4.67357 9.71529 4.67357 7.60536C4.67357 5.49544 6.39011 3.77893 8.5 3.77893C10.6099 3.77893 12.3264 5.49548 12.3264 7.6054C12.3264 9.71533 10.6099 11.4318 8.5 11.4318Z" fill="#251C41"/>
</svg>
