<svg width="11" height="19" viewBox="0 0 11 19" fill="none" xmlns="http://www.w3.org/2000/svg">
<path d="M0.298829 8.63107L8.62979 0.299114C8.82247 0.10625 9.0797 4.30141e-08 9.35397 3.68658e-08C9.62824 3.07175e-08 9.88547 0.10625 10.0782 0.299114L10.6917 0.912563C11.091 1.3123 11.091 1.96197 10.6918 2.3611L3.69605 9.35777L10.6999 16.3622C10.8926 16.5551 10.999 16.8122 10.999 17.0863C10.999 17.3608 10.8927 17.6179 10.7 17.8109L10.0865 18.4242C9.89362 18.6171 9.63655 18.7233 9.36228 18.7233C9.08801 18.7233 8.83078 18.6171 8.63808 18.4242L0.298872 10.0846C0.105718 9.89115 -0.000374922 9.63283 0.000225479 9.35823C-0.00039104 9.08256 0.105687 8.82439 0.298829 8.63107Z" fill="#8B75C8"/>
</svg>
