<svg width="89" height="89" viewBox="0 0 89 89" fill="none" xmlns="http://www.w3.org/2000/svg">
<circle cx="44.5" cy="44.5" r="44.5" fill="#F3F3F3"/>
<g clip-path="url(#clip0)">
<path d="M24.0801 30.8047V52.8634C24.0801 54.8253 25.6704 56.4156 27.6323 56.4156H61.4719C63.4338 56.4156 65.0241 54.8253 65.0241 52.8634V30.8047C65.0241 28.8634 63.4507 27.29 61.5094 27.29H27.5948C25.6535 27.29 24.0801 28.8634 24.0801 30.8047Z" fill="#8B75C8"/>
<path d="M52.8105 61.1558L44.5522 63.0376L36.2932 61.1558L37.4246 56.4161L44.2015 53.9243L51.6791 56.4161L52.0451 57.9504L52.8105 61.1558Z" fill="#2D303B"/>
<path d="M65.0244 52.4453V52.8632C65.0244 54.8251 63.4335 56.4161 61.4716 56.4161H27.6323C25.6704 56.4161 24.0804 54.8251 24.0804 52.8632V52.4453H65.0244Z" fill="#3C3F4D"/>
<path d="M52.8106 61.1555H40.1789L40.9444 57.9502H52.0452L52.8106 61.1555Z" fill="#3C3F4D"/>
<path d="M57.6778 63.7946V64.92H31.4269V63.7946C31.4269 62.3372 32.6084 61.1558 34.0657 61.1558H55.039C56.4964 61.1558 57.6778 62.3372 57.6778 63.7946Z" fill="#2D303B"/>
<path d="M57.6778 63.7946V64.92H35.9381V63.7946C35.9381 62.3372 37.1196 61.1558 38.5779 61.1558H55.0389C56.4963 61.1558 57.6778 62.3372 57.6778 63.7946Z" fill="#3C3F4D"/>
<path d="M31.5133 31.9385H48.2374L50.3682 52.445H29.3828L31.5133 31.9385Z" fill="#FF491F"/>
<path d="M39.7362 38.5688H51.3616L52.8424 52.4452H38.2554L39.7362 38.5688Z" fill="#ED3618"/>
<path d="M41.3239 38.5688H52.949L54.4302 52.4452H39.8428L41.3239 38.5688Z" fill="#FFE14D"/>
<path d="M44.3873 34.5711C44.041 34.5711 43.7608 34.2906 43.7608 33.9443V29.8087C43.7608 27.6663 42.0178 25.9233 39.8754 25.9233C37.733 25.9233 35.9901 27.6663 35.9901 29.8087V33.9443C35.9901 34.2902 35.7095 34.5708 35.3635 34.5708C35.0172 34.5708 34.7367 34.2902 34.7367 33.9443V29.8087C34.7367 26.975 37.042 24.6699 39.8754 24.6699C42.7088 24.6699 45.0142 26.9753 45.0142 29.8087V33.9443C45.0142 34.2906 44.7336 34.5711 44.3873 34.5711Z" fill="#3C3F4D"/>
<path d="M47.1367 47.1154C45.3053 47.1154 43.8154 45.6255 43.8154 43.794V41.0995C43.8154 40.7532 44.096 40.4727 44.4422 40.4727C44.7882 40.4727 45.0688 40.7532 45.0688 41.0995V43.794C45.0688 44.9345 45.9966 45.862 47.1367 45.862C48.2769 45.862 49.2047 44.9345 49.2047 43.794V41.0995C49.2047 40.7532 49.4853 40.4727 49.8316 40.4727C50.1775 40.4727 50.4581 40.7532 50.4581 41.0995V43.794C50.4581 45.6255 48.9682 47.1154 47.1367 47.1154Z" fill="white"/>
<path d="M62.1 30.0462C62.1 33.4298 59.357 36.1725 55.9737 36.1725C52.5901 36.1725 49.8474 33.4298 49.8474 30.0462C49.8474 26.6629 52.5901 23.9199 55.9737 23.9199C59.357 23.9199 62.1 26.6629 62.1 30.0462Z" fill="#32CC77"/>
<path d="M55.3316 33.7607C55.1045 33.7607 54.8946 33.6374 54.7839 33.4382L53.1126 30.4299C52.9446 30.1274 53.0534 29.7458 53.3562 29.5778C53.659 29.4099 54.0403 29.5187 54.2083 29.8215L55.2947 31.7766L57.6927 26.8436C57.8437 26.5324 58.2185 26.4026 58.5303 26.554C58.8416 26.7054 58.9711 27.0804 58.8197 27.3916L55.8953 33.4078C55.793 33.618 55.5825 33.7538 55.3488 33.7604C55.3432 33.7604 55.3375 33.7607 55.3316 33.7607Z" fill="white"/>
<path d="M62.7316 41.1147H56.7154C56.3694 41.1147 56.0888 40.8342 56.0888 40.4882C56.0888 40.1419 56.3694 39.8613 56.7154 39.8613H62.7316C63.0779 39.8613 63.3581 40.1419 63.3581 40.4882C63.3581 40.8342 63.0775 41.1147 62.7316 41.1147Z" fill="#3C3F4D"/>
<path d="M62.7317 44.0396H57.9693C57.623 44.0396 57.3424 43.759 57.3424 43.413C57.3424 43.0667 57.623 42.7861 57.9693 42.7861H62.7317C63.078 42.7861 63.3583 43.0667 63.3583 43.413C63.3583 43.759 63.0777 44.0396 62.7317 44.0396Z" fill="#3C3F4D"/>
</g>
<defs>
<clipPath id="clip0">
<rect x="24" y="24" width="41" height="41" fill="white"/>
</clipPath>
</defs>
</svg>
