<svg width="89" height="89" viewBox="0 0 89 89" fill="none" xmlns="http://www.w3.org/2000/svg">
<circle cx="44.5" cy="44.5" r="44.5" fill="#F3F3F3"/>
<g clip-path="url(#clip0)">
<path d="M69.2312 29.588V64.2462L20.5491 60.9V29.588C20.5491 27.0942 22.5696 25.0737 25.0634 25.0737H64.717C67.2108 25.0737 69.2312 27.0942 69.2312 29.588Z" fill="#CCCCCC"/>
<path d="M69.2313 29.5875V59.9852H22.0347V29.5875C22.0347 27.0941 24.0555 25.0732 26.549 25.0732H64.717C67.2108 25.0732 69.2313 27.0941 69.2313 29.5875Z" fill="#E6E6E6"/>
<path d="M59.1846 48.5889C59.1846 55.2026 56.9479 58.4275 53.4291 59.9852C50.6268 61.2298 47.0111 61.4152 43.0624 61.4152C39.1138 61.4152 35.4976 61.2298 32.6945 59.9852C29.1752 58.4275 26.939 55.2026 26.939 48.5889C26.939 38.9579 31.6806 30.8047 38.2213 28.0618H37.771C37.3707 28.0618 37.0075 27.8995 36.7456 27.6367C36.4829 27.374 36.3205 27.0117 36.3205 26.6105C36.3205 25.8094 36.9699 25.1604 37.771 25.1604H38.8955C38.8806 25.1318 38.8669 25.1031 38.8507 25.0732H47.2725C47.2567 25.1031 47.2431 25.1318 47.2281 25.1604H48.3526C48.7538 25.1604 49.1161 25.3223 49.3776 25.5855C49.6408 25.847 49.8027 26.2093 49.8027 26.6105C49.8027 27.4116 49.1537 28.0618 48.3526 28.0618H47.9036C54.4417 30.8047 59.1846 38.9579 59.1846 48.5889Z" fill="#CCCCCC"/>
<path d="M65.8031 29.5876V57.4714H23.9778V29.5876C23.9778 28.989 24.4644 28.502 25.0634 28.502H64.717C65.316 28.502 65.8031 28.989 65.8031 29.5876Z" fill="#8B75C8"/>
<path d="M59.1846 48.5889C59.1846 52.7465 58.301 55.5637 56.7711 57.4714H29.3525C27.8222 55.5637 26.939 52.7465 26.939 48.5889C26.939 39.4279 31.229 31.6038 37.2771 28.502H48.8474C54.8933 31.6038 59.1846 39.4279 59.1846 48.5889Z" fill="#83B2C6"/>
<path d="M40.0508 28.0612C33.5101 30.8036 28.7672 38.9576 28.7672 48.5891C28.7672 60.4716 35.9855 61.415 44.8906 61.415C53.7944 61.415 61.0128 60.4716 61.0128 48.5891C61.0128 38.9576 56.2699 30.8041 49.7305 28.0612L45.4986 26.3428" fill="#FF8E1D"/>
<path d="M44.6484 61.4141C35.8552 61.397 28.7672 60.3627 28.7672 48.5891C28.7672 38.9581 33.5101 30.8037 40.0508 28.062H42.0768C38.2747 30.8037 35.5181 38.9581 35.5181 48.5891C35.5181 60.2862 39.5834 61.3834 44.6484 61.4141Z" fill="#E2720E"/>
<path d="M49.0563 25.1603L44.5279 26.6659L40.7237 25.1603C39.7363 23.2137 38.261 19.7201 39.5902 18.3922C41.4504 16.5316 44.8013 21.1809 44.8885 21.3031C44.8893 21.3052 44.8906 21.3052 44.8906 21.3052C44.8906 21.3052 48.3056 16.5064 50.1902 18.3922C51.5193 19.7201 50.0436 23.2137 49.0563 25.1603Z" fill="#FF8E1D"/>
<path d="M43.3419 25.1606H40.7237C39.7363 23.214 38.261 19.7204 39.5902 18.3925C41.4504 16.5319 44.8013 21.1812 44.8885 21.3034C44.8082 21.2577 41.9102 19.5846 41.2334 21.2747C40.8288 22.2848 42.1716 23.957 43.3419 25.1606Z" fill="#E2720E"/>
<path d="M51.6313 26.6107C51.6313 27.4117 50.9819 28.062 50.1808 28.062H39.5992C39.1993 28.062 38.8357 27.8997 38.5742 27.6369C38.311 27.3741 38.1491 27.0118 38.1491 26.6107C38.1491 25.8096 38.7981 25.1602 39.5992 25.1602H50.1808C50.582 25.1602 50.9443 25.3225 51.2062 25.5853C51.4689 25.8472 51.6313 26.2095 51.6313 26.6107Z" fill="#ED3618"/>
<path d="M51.6313 26.6107C51.6313 27.4117 50.9819 28.062 50.1808 28.062H43.79C43.3889 28.062 43.0265 27.8997 42.7651 27.6369C42.5019 27.3741 42.34 27.0118 42.34 26.6107C42.34 25.8096 42.989 25.1602 43.79 25.1602H50.1808C50.582 25.1602 50.9443 25.3225 51.2062 25.5853C51.4689 25.8472 51.6313 26.2095 51.6313 26.6107Z" fill="#FF491F"/>
<path d="M48.5444 45.4838C47.8463 44.7618 46.8965 44.3375 46.0574 44.0188V38.9884C46.897 39.0824 47.4297 39.3533 47.8202 39.5515C48.0659 39.6763 48.2599 39.7745 48.4333 39.7745C48.9631 39.7745 49.2519 39.0892 49.2519 38.7368C49.2519 38.324 48.8482 37.9592 48.0838 37.6815C47.5224 37.4777 46.803 37.3345 46.0579 37.2786V36.2139C46.0579 35.7332 45.6669 35.3423 45.1863 35.3423C44.7056 35.3423 44.3147 35.7332 44.3147 36.2139V37.3375C43.6114 37.4294 42.6134 37.6695 41.8281 38.292C40.9655 38.976 40.528 39.9672 40.528 41.2383C40.528 42.4995 40.9536 43.4548 41.8281 44.1585C42.5258 44.7203 43.4025 45.0553 44.3147 45.3757V51.2367C42.8693 51.0923 42.1434 50.4048 41.6619 49.949C41.3889 49.6901 41.1915 49.5034 40.9736 49.5034C40.5408 49.5034 40.1332 50.0883 40.1332 50.5411C40.1332 51.4636 41.7619 52.8923 44.3147 53.038V54.2056C44.3147 54.6859 44.7056 55.0768 45.1863 55.0768C45.6669 55.0768 46.0574 54.6859 46.0574 54.2056V52.9354C47.1084 52.7444 47.9518 52.3146 48.5641 51.658C49.2827 50.8872 49.6471 49.8396 49.6471 48.5446C49.6471 47.2526 49.2861 46.2516 48.5444 45.4838ZM47.8343 48.7202C47.8343 49.4243 47.6421 49.9973 47.2631 50.4236C46.9696 50.7535 46.5641 50.991 46.0579 51.129V46.0734C46.5535 46.3131 46.9264 46.5763 47.1973 46.8771C47.6258 47.353 47.8343 47.9559 47.8343 48.7202ZM42.3404 41.0627C42.3404 40.4492 42.5514 39.96 42.9672 39.6092C43.294 39.3328 43.7473 39.1414 44.3147 39.0392V43.3826C43.0953 42.893 42.3404 42.3312 42.3404 41.0627Z" fill="#E2720E"/>
<path d="M72.8906 60.8999V62.1013C72.8906 65.4454 70.1798 68.1571 66.8344 68.1571H22.9456C19.6015 68.1571 16.8906 65.4454 16.8906 62.1013V60.8999H72.8906Z" fill="#CCCCCC"/>
<path d="M72.8906 60.8999V62.1013C72.8906 65.4454 70.1797 68.1571 66.8344 68.1571H33.4028C30.0575 68.1571 27.3466 65.4454 27.3466 62.1013V60.8999H72.8906Z" fill="#E6E6E6"/>
<path d="M48.1266 64.3286H41.6547C40.0811 64.3286 38.8054 63.0529 38.8054 61.4793V60.9004H50.9763V61.4793C50.9759 63.0529 49.7001 64.3286 48.1266 64.3286Z" fill="#CCCCCC"/>
</g>
<defs>
<clipPath id="clip0">
<rect x="17" y="15" width="56" height="56" fill="white"/>
</clipPath>
</defs>
</svg>
