<svg width="89" height="89" viewBox="0 0 89 89" fill="none" xmlns="http://www.w3.org/2000/svg">
<circle cx="44.5" cy="44.5" r="44.5" fill="#F3F3F3"/>
<g clip-path="url(#clip0)">
<path d="M55.6532 30.6264V61.6464C55.6532 63.453 54.1885 64.9181 52.3816 64.9181H26.3537C24.5467 64.9181 23.082 63.453 23.082 61.6464V30.6264C23.082 28.8195 24.5467 27.3545 26.3537 27.3545H37.3193C37.3193 28.4869 38.2363 29.404 39.3678 29.404C40.4999 29.404 41.417 28.4869 41.417 27.3545H52.3816C54.1885 27.3545 55.6532 28.8195 55.6532 30.6264Z" fill="#8B75C8"/>
<path d="M43.8435 53.2607H51.1962V64.9178H43.8435V53.2607Z" fill="#1F81A3"/>
<path d="M27.5392 31.4268H51.1962V59.7125H27.5392V31.4268Z" fill="#E6E6E6"/>
<path d="M43.512 25.7698C42.8734 24.1026 41.2593 22.918 39.3678 22.918C37.476 22.918 35.8619 24.1026 35.2243 25.7698H31.959C31.2224 25.7698 30.6248 26.3671 30.6248 27.1041V33.9983H48.1106V27.1041C48.1106 26.3671 47.5133 25.7698 46.7763 25.7698H43.512ZM39.3678 29.4039C38.2364 29.4039 37.3193 28.4868 37.3193 27.3544C37.3193 26.2233 38.2364 25.3058 39.3678 25.3058C40.4999 25.3058 41.417 26.2233 41.417 27.3544C41.417 28.4868 40.4999 29.4039 39.3678 29.4039Z" fill="#FFE14D"/>
<path d="M43.8435 48.0557H51.1962V59.7128H43.8435V48.0557Z" fill="#CCCCCC"/>
<path d="M45.9908 48.0557H65.0637V64.9182H45.9908V48.0557Z" fill="#FF8E1D"/>
<path d="M58.8701 56.1127L55.5273 54.2269L52.1845 56.1127V48.0557H58.8701V56.1127Z" fill="#FF491F"/>
<path d="M39.3679 30.0467C37.8836 30.0467 36.6762 28.839 36.6762 27.3544C36.6762 25.8705 37.8836 24.6631 39.3679 24.6631C40.8521 24.6631 42.0602 25.8705 42.0602 27.3544C42.0602 28.839 40.8524 30.0467 39.3679 30.0467ZM39.3679 25.949C38.5927 25.949 37.9621 26.5796 37.9621 27.3544C37.9621 28.1302 38.5927 28.7611 39.3679 28.7611C40.1433 28.7611 40.7743 28.1302 40.7743 27.3544C40.7743 26.5796 40.1433 25.949 39.3679 25.949Z" fill="#FFBE1D"/>
<path d="M32.3211 43.2125C32.0984 43.2125 31.8907 43.0972 31.7734 42.9065L30.3161 40.5359C30.1303 40.2334 30.2248 39.8374 30.5273 39.6515C30.8298 39.4657 31.2258 39.5602 31.4117 39.8624L32.2759 41.2684L33.7226 38.5005C33.8873 38.1859 34.2754 38.0641 34.5904 38.2285C34.905 38.3932 35.0268 38.7815 34.8621 39.0962L32.8908 42.8674C32.7834 43.0725 32.5745 43.2042 32.3435 43.2122C32.3358 43.2125 32.3284 43.2125 32.3211 43.2125Z" fill="#FF491F"/>
<path d="M45.0925 41.3269H36.864C36.509 41.3269 36.2212 41.0388 36.2212 40.6838C36.2212 40.3288 36.509 40.041 36.864 40.041H45.0925C45.4475 40.041 45.7353 40.3288 45.7353 40.6838C45.7353 41.0388 45.4475 41.3269 45.0925 41.3269Z" fill="#3C3F4D"/>
<path d="M32.3211 50.5446C32.0984 50.5446 31.8907 50.4289 31.7734 50.2382L30.3161 47.8676C30.1303 47.5652 30.2248 47.1691 30.5273 46.9832C30.8298 46.7974 31.2258 46.8919 31.4117 47.1944L32.2759 48.6005L33.7226 45.8322C33.8873 45.5179 34.2754 45.3961 34.5904 45.5605C34.905 45.7249 35.0268 46.1133 34.8621 46.4279L32.8908 50.1994C32.7834 50.4045 32.5745 50.5359 32.3435 50.5439C32.3358 50.5446 32.3284 50.5446 32.3211 50.5446Z" fill="#FF491F"/>
<path d="M45.0925 48.6586H36.864C36.509 48.6586 36.2212 48.3709 36.2212 48.0158C36.2212 47.6608 36.509 47.373 36.864 47.373H45.0925C45.4475 47.373 45.7353 47.6608 45.7353 48.0158C45.7353 48.3709 45.4475 48.6586 45.0925 48.6586Z" fill="#3C3F4D"/>
<path d="M45.9908 64.9179L55.5273 63.0552L65.0637 64.9179H45.9908Z" fill="#E2720E"/>
</g>
<defs>
<clipPath id="clip0">
<rect x="23" y="23" width="42" height="42" fill="white"/>
</clipPath>
</defs>
</svg>
